<svg id="Layer_1" xmlns="http://www.w3.org/2000/svg" viewBox="24.7 26.3 238.3 219"><style>.st0{fill:#231f20}.st1{fill:#00a1df}</style><path class="st0" d="M238.3 195.9c-3.3 0-6.5.7-9.3 1.8l-23.2-41.4c6.8-4.4 11.3-12 11.3-20.7 0-13.6-11.1-24.7-24.7-24.7-3.8 0-7.4.9-10.6 2.4L158 71.2c-1.4 1-2.9 1.9-4.5 2.5l23.8 42.4c-5.9 4.5-9.7 11.6-9.7 19.6 0 6.9 2.9 13.2 7.5 17.7l-21.2 44.7c-3.1-1.4-6.5-2.1-10-2.1-2.9 0-5.7.5-8.3 1.4l-23-44.1c4.6-4.5 7.4-10.7 7.4-17.6 0-8-3.8-15-9.7-19.6L134 73.7c-1.6-.7-3.1-1.5-4.5-2.5L106 113.4c-3.2-1.5-6.8-2.4-10.6-2.4-13.6 0-24.7 11-24.7 24.7 0 8.7 4.5 16.3 11.3 20.7l-23.2 41.4c-2.9-1.2-6-1.8-9.3-1.8-13.6 0-24.7 11.1-24.7 24.7s11.1 24.7 24.7 24.7 24.7-11 24.7-24.7c0-8.5-4.3-16-10.8-20.4l23.2-41.5c2.7 1.1 5.7 1.7 8.8 1.7 4.9 0 9.4-1.4 13.2-3.8l22.4 43.1c-7.1 4.3-11.8 12.1-11.8 21 0 13.6 11.1 24.7 24.7 24.7s24.7-11 24.7-24.7c0-8.2-4-15.5-10.2-20l20.9-44c3.8 2.4 8.2 3.8 13 3.8 3.1 0 6.1-.6 8.8-1.7l23.2 41.5c-6.5 4.4-10.8 11.9-10.8 20.4 0 13.6 11.1 24.7 24.7 24.7s24.7-11 24.7-24.7c.1-13.8-11-24.9-24.6-24.9z"/><circle class="st1" cx="143.9" cy="51" r="24.7"/></svg>